Coordinates
version=1
nRows=40
nColumns=38
inDegrees=no

Units are S.I. units (second, meters, Newtons, ...)
If the header above contains a line with 'inDegrees', this indicates whether rotational values are in degrees (yes) or radians (no).

endheader
time	pelvis_tilt	pelvis_list	pelvis_rotation	pelvis_tx	pelvis_ty	pelvis_tz	hip_flexion_r	hip_adduction_r	hip_rotation_r	knee_angle_r	ankle_angle_r	subtalar_angle_r	mtp_angle_r	hip_flexion_l	hip_adduction_l	hip_rotation_l	knee_angle_l	ankle_angle_l	subtalar_angle_l	mtp_angle_l	lumbar_extension	lumbar_bending	lumbar_rotation	arm_flex_r	arm_add_r	arm_rot_r	elbow_flex_r	pro_sup_r	wrist_flex_r	wrist_dev_r	arm_flex_l	arm_add_l	arm_rot_l	elbow_flex_l	pro_sup_l	wrist_flex_l	wrist_dev_l
2.7775	-0.223439	-0.0497452	-3.14156	-0.221708	0.959116	-0.00264089	-0.399408	-0.0187488	-0.0948537	0.396823	0.278267	0	0	0.20655	0.0535386	-0.0811435	0.226592	-0.0505039	0	0	-0.497199	-0.100627	0.0953382	0.671826	-0.326993	1.57149	0.597812	0.43555	0	0	0.130396	-0.241647	1.5708	0.395836	5.13887e-05	0	0
2.7875	-0.223317	-0.0545352	-3.14862	-0.224164	0.958909	-0.00135628	-0.396054	-0.0321492	-0.0976618	0.422548	0.262526	0	0	0.203539	0.0587579	-0.0896975	0.240867	-0.0595958	0	0	-0.492844	-0.109379	0.0970388	0.654715	-0.324646	1.57147	0.591683	0.436752	0	0	0.135419	-0.244057	1.5708	0.395922	6.34123e-05	0	0
2.79749	-0.222815	-0.0595463	-3.15551	-0.226629	0.958743	-1.17775e-05	-0.390236	-0.0464182	-0.101327	0.451361	0.243939	0	0	0.200922	0.0642167	-0.0984911	0.255435	-0.0658362	0	0	-0.48805	-0.118144	0.0981304	0.637124	-0.322293	1.5714	0.585386	0.43602	0	0	0.140655	-0.246585	1.5708	0.396167	7.70121e-05	0	0
2.80748	-0.221945	-0.0646883	-3.16206	-0.229055	0.958618	0.00138536	-0.381846	-0.0613854	-0.105758	0.48329	0.22248	0	0	0.198689	0.0698861	-0.107116	0.270207	-0.0689577	0	0	-0.482948	-0.126757	0.0984443	0.619263	-0.3199	1.57131	0.57894	0.433479	0	0	0.146194	-0.249277	1.5708	0.39662	9.09351e-05	0	0
2.81747	-0.220756	-0.069858	-3.16817	-0.231396	0.958539	0.0028245	-0.370856	-0.076852	-0.110777	0.518282	0.19822	0	0	0.196748	0.0757134	-0.115244	0.285027	-0.0689057	0	0	-0.477704	-0.135062	0.0978657	0.601337	-0.317451	1.57121	0.572373	0.429337	0	0	0.152139	-0.25217	1.5708	0.397332	0.000103161	0	0
2.82746	-0.219332	-0.0749423	-3.17376	-0.233612	0.958511	0.0042934	-0.357319	-0.0925962	-0.116131	0.556193	0.171344	0	0	0.194941	0.0816203	-0.122654	0.299675	-0.065836	0	0	-0.472504	-0.14291	0.0963463	0.583538	-0.314959	1.57112	0.565723	0.423863	0	0	0.158596	-0.255292	1.5708	0.39835	0.000110763	0	0
2.83745	-0.217772	-0.0798272	-3.17881	-0.235666	0.958543	0.00578009	-0.341357	-0.108385	-0.121504	0.596791	0.142148	0	0	0.193061	0.0875138	-0.129232	0.313884	-0.0600822	0	0	-0.46753	-0.150169	0.0939076	0.566028	-0.312467	1.57103	0.559044	0.417365	0	0	0.165668	-0.25865	1.5708	0.399709	0.000109786	0	0
2.84744	-0.216183	-0.0844083	-3.18335	-0.237531	0.958643	0.00727342	-0.323141	-0.123987	-0.126555	0.63976	0.111043	0	0	0.190882	0.0932995	-0.134955	0.327358	-0.0520953	0	0	-0.462944	-0.156734	0.0906384	0.548944	-0.310045	1.57095	0.552394	0.410169	0	0	0.173445	-0.262228	1.5708	0.401421	9.51738e-05	0	0
2.85743	-0.214666	-0.0885909	-3.18747	-0.239185	0.958818	0.008761	-0.302877	-0.139173	-0.130927	0.684706	0.0785435	0	0	0.188175	0.098881	-0.139881	0.339804	-0.0423753	0	0	-0.458882	-0.162533	0.0866918	0.532391	-0.307778	1.57089	0.54584	0.402585	0	0	0.182009	-0.265996	1.5708	0.403475	6.07733e-05	0	0
2.86742	-0.213308	-0.0923036	-3.19127	-0.240615	0.959075	0.0102329	-0.28079	-0.153735	-0.134315	0.731158	0.0452599	0	0	0.184739	0.104183	-0.144107	0.350952	-0.0314179	0	0	-0.455442	-0.167523	0.0822479	0.516443	-0.305756	1.57085	0.539445	0.394884	0	0	0.191423	-0.269904	1.5708	0.405836	-5.15407e-07	0	0
2.87741	-0.212166	-0.0954993	-3.19487	-0.241811	0.959421	0.0116819	-0.257121	-0.167491	-0.136501	0.778576	0.0118728	0	0	0.180418	0.109151	-0.147742	0.360581	-0.0196781	0	0	-0.45268	-0.17169	0.0774833	0.501148	-0.304053	1.57081	0.533251	0.387273	0	0	0.201724	-0.2739	1.5708	0.408447	-9.63982e-05	0	0
2.88741	-0.211283	-0.0981399	-3.19837	-0.242771	0.959863	0.0130997	-0.232134	-0.180266	-0.137355	0.826355	-0.0208924	0	0	0.175101	0.113736	-0.1509	0.36853	-0.00755144	0	0	-0.450621	-0.175036	0.0725658	0.486531	-0.302719	1.57079	0.527278	0.379917	0	0	0.212929	-0.277933	1.5708	0.41125	-0.000234576	0	0
2.8974	-0.210676	-0.100194	-3.20185	-0.243499	0.960407	0.0144773	-0.206116	-0.191899	-0.136841	0.873838	-0.0522798	0	0	0.16873	0.117884	-0.153669	0.374716	0.00463109	0	0	-0.449262	-0.177571	0.0676375	0.472599	-0.30177	1.57078	0.521519	0.372965	0	0	0.225028	-0.281971	1.5708	0.414192	-0.000421788	0	0
2.90739	-0.210331	-0.101638	-3.20537	-0.244002	0.961057	0.0158077	-0.179353	-0.202244	-0.135033	0.920347	-0.081515	0	0	0.161316	0.121551	-0.156096	0.379133	0.0166034	0	0	-0.448556	-0.179304	0.06279	0.459344	-0.301198	1.57077	0.51595	0.366559	0	0	0.237984	-0.285993	1.5708	0.417229	-0.000662437	0	0
2.91738	-0.210194	-0.10246	-3.2089	-0.244292	0.961813	0.017089	-0.152126	-0.211177	-0.132108	0.965219	-0.107818	0	0	0.152946	0.124708	-0.158172	0.381848	0.0281613	0	0	-0.448414	-0.180231	0.0580437	0.446748	-0.300974	1.57077	0.51054	0.360851	0	0	0.25173	-0.289995	1.5708	0.420324	-0.000956724	0	0
2.92737	-0.210182	-0.102655	-3.21239	-0.244383	0.96267	0.0183235	-0.1247	-0.218597	-0.128318	1.00785	-0.130393	0	0	0.143762	0.127333	-0.159843	0.382982	0.0391577	0	0	-0.448715	-0.180333	0.0533517	0.434786	-0.30105	1.57077	0.50525	0.356001	0	0	0.266177	-0.293988	1.57079	0.423454	-0.00129825	0	0
2.93736	-0.210207	-0.10222	-3.21571	-0.244289	0.963621	0.0195165	-0.0973245	-0.224423	-0.123962	1.0477	-0.148445	0	0	0.133922	0.129407	-0.161025	0.382684	0.0494962	0	0	-0.449332	-0.179577	0.0486139	0.423434	-0.301368	1.57077	0.500049	0.352178	0	0	0.28122	-0.298	1.57079	0.426612	-0.00167108	0	0
2.94735	-0.210197	-0.101154	-3.21872	-0.244027	0.964658	0.0206743	-0.07024	-0.228607	-0.11936	1.08436	-0.161281	0	0	0.123572	0.130913	-0.161629	0.38111	0.0591208	0	0	-0.450161	-0.177922	0.0436983	0.412672	-0.301867	1.57077	0.494913	0.349539	0	0	0.296751	-0.302074	1.57078	0.429813	-0.00204634	0	0
2.95734	-0.210107	-0.0994661	-3.22129	-0.243612	0.965772	0.0218033	-0.0436631	-0.231149	-0.114833	1.11745	-0.168512	0	0	0.112823	0.131838	-0.161578	0.378406	0.0680056	0	0	-0.451128	-0.17534	0.0384686	0.402484	-0.302496	1.57078	0.489845	0.348203	0	0	0.312668	-0.306261	1.57078	0.433096	-0.00237851	0	0
2.96733	-0.209918	-0.097179	-3.22328	-0.24306	0.966955	0.0229102	-0.0177889	-0.232108	-0.110684	1.14668	-0.170202	0	0	0.101753	0.132185	-0.160816	0.374707	0.0761471	0	0	-0.452186	-0.171821	0.0328016	0.392852	-0.303218	1.57078	0.484873	0.348207	0	0	0.328885	-0.310611	1.57077	0.436512	-0.00260169	0	0
2.97732	-0.209624	-0.0943386	-3.2246	-0.242385	0.968193	0.0240015	0.00721239	-0.231601	-0.107186	1.17177	-0.166895	0	0	0.0904182	0.131984	-0.159305	0.370124	0.0835572	0	0	-0.453303	-0.167389	0.0265997	0.383749	-0.304012	1.57079	0.480054	0.349451	0	0	0.345324	-0.31517	1.57076	0.440118	-0.00262626	0	0
2.98732	-0.209228	-0.0910121	-3.22517	-0.241603	0.969474	0.0250822	0.0312052	-0.229781	-0.10454	1.1925	-0.159474	0	0	0.0788639	0.131281	-0.15704	0.364755	0.0902635	0	0	-0.454452	-0.162101	0.0198055	0.375136	-0.304867	1.57079	0.475446	0.351701	0	0	0.361924	-0.319974	1.57074	0.443971	-0.00233669	0	0
2.99731	-0.208738	-0.0872829	-3.22497	-0.240726	0.97078	0.0261541	0.0540953	-0.226828	-0.102868	1.20871	-0.148963	0	0	0.0671289	0.130139	-0.154051	0.358692	0.0963075	0	0	-0.455613	-0.156054	0.0124104	0.36697	-0.305772	1.57079	0.471102	0.354638	0	0	0.378636	-0.325048	1.57073	0.448129	-0.00159128	0	0
3.0073	-0.208163	-0.0832468	-3.22403	-0.239766	0.972094	0.0272158	0.0758283	-0.222936	-0.10221	1.22034	-0.136336	0	0	0.0552511	0.128631	-0.150406	0.352025	0.101744	0	0	-0.456766	-0.149375	0.00445601	0.359205	-0.306715	1.57079	0.467056	0.357891	0	0	0.395424	-0.330405	1.57072	0.452641	-0.000225037	0	0
3.01729	-0.207514	-0.0790088	-3.22243	-0.238733	0.973394	0.0282625	0.0963857	-0.218309	-0.102542	1.22738	-0.122401	0	0	0.0432698	0.126837	-0.1462	0.344841	0.106641	0	0	-0.457893	-0.142218	-0.00397167	0.35179	-0.307683	1.5708	0.46333	0.361045	0	0	0.41226	-0.336046	1.57071	0.457548	0.00194287	0	0
3.02728	-0.206799	-0.0746785	-3.22025	-0.237637	0.974661	0.0292869	0.115777	-0.213151	-0.103793	1.22991	-0.107765	0	0	0.0312225	0.124846	-0.14156	0.337223	0.111086	0	0	-0.458976	-0.134756	-0.0127521	0.344669	-0.308658	1.5708	0.459924	0.363693	0	0	0.429121	-0.341956	1.57071	0.462881	0.00509553	0	0
3.03727	-0.20603	-0.0703652	-3.21764	-0.236485	0.975874	0.0302803	0.13403	-0.207664	-0.105866	1.22805	-0.0928535	0	0	0.0191392	0.12275	-0.136629	0.329243	0.115171	0	0	-0.460004	-0.127169	-0.0217435	0.33779	-0.309617	1.5708	0.456818	0.365463	0	0	0.445986	-0.348106	1.57071	0.468647	0.00939667	0	0
3.04726	-0.205223	-0.0661713	-3.21473	-0.235287	0.977014	0.0312331	0.15118	-0.202037	-0.108652	1.22198	-0.0779631	0	0	0.00703546	0.120642	-0.131561	0.32096	0.118984	0	0	-0.460975	-0.119637	-0.0307933	0.331106	-0.310538	1.5708	0.453979	0.366072	0	0	0.462833	-0.354452	1.57073	0.474838	0.0149592	0	0
3.05725	-0.204403	-0.0621858	-3.21169	-0.234048	0.978064	0.0321356	0.167263	-0.19644	-0.112036	1.2119	-0.0633138	0	0	-0.00508879	0.118608	-0.126502	0.312422	0.122602	0	0	-0.461896	-0.112324	-0.0397429	0.324576	-0.311401	1.5708	0.45136	0.365359	0	0	0.479637	-0.360938	1.57077	0.481419	0.0218026	0	0
3.06724	-0.203594	-0.0584809	-3.20867	-0.232779	0.97901	0.0329781	0.182309	-0.191013	-0.1159	1.19801	-0.0490895	0	0	-0.0172447	0.116729	-0.121588	0.303674	0.12609	0	0	-0.462785	-0.105374	-0.0484358	0.318169	-0.312185	1.5708	0.448908	0.363263	0	0	0.496366	-0.367495	1.57084	0.488348	0.0298262	0	0
3.07724	-0.202823	-0.0551079	-3.20583	-0.231488	0.979842	0.0337522	0.196347	-0.185854	-0.120125	1.18054	-0.0354643	0	0	-0.0294442	0.115066	-0.116931	0.294764	0.129506	0	0	-0.463658	-0.0989052	-0.0567241	0.311863	-0.312874	1.5708	0.446566	0.359822	0	0	0.512986	-0.374052	1.57094	0.495576	0.038836	0	0
3.08723	-0.202105	-0.0520957	-3.2033	-0.230183	0.980552	0.0344507	0.209403	-0.181015	-0.1246	1.15969	-0.0226137	0	0	-0.0416894	0.113668	-0.112624	0.285746	0.132904	0	0	-0.464532	-0.0929998	-0.0644782	0.305648	-0.313456	1.5708	0.444275	0.355159	0	0	0.529452	-0.380539	1.57107	0.503058	0.0485863	0	0
3.09722	-0.201443	-0.0494516	-3.20118	-0.228873	0.981135	0.0350686	0.221504	-0.176509	-0.129225	1.13566	-0.0107176	0	0	-0.0539607	0.112558	-0.108728	0.27669	0.136342	0	0	-0.465406	-0.0877019	-0.0715965	0.299519	-0.31392	1.5708	0.441982	0.349451	0	0	0.545712	-0.386886	1.57124	0.510743	0.0588067	0	0
3.10721	-0.200823	-0.0471641	-3.19954	-0.227566	0.981589	0.0356034	0.232679	-0.172308	-0.133919	1.10861	3.55834e-05	0	0	-0.0662117	0.111742	-0.105279	0.267686	0.139887	0	0	-0.466269	-0.0830195	-0.0780089	0.293481	-0.314258	1.5708	0.439647	0.342886	0	0	0.561705	-0.393025	1.57146	0.518574	0.0692307	0	0
3.1172	-0.200217	-0.0452087	-3.19841	-0.226269	0.981913	0.0360545	0.242954	-0.168363	-0.138622	1.07872	0.00945109	0	0	-0.0783731	0.111207	-0.102273	0.25884	0.143612	0	0	-0.467094	-0.07893	-0.0836786	0.28754	-0.314464	1.5708	0.437239	0.33564	0	0	0.577369	-0.398895	1.57172	0.526495	0.0796263	0	0
3.12719	-0.199588	-0.0435524	-3.19777	-0.224988	0.982108	0.0364236	0.252349	-0.164605	-0.143299	1.04609	0.0173342	0	0	-0.0903592	0.110927	-0.0996795	0.250266	0.147584	0	0	-0.467845	-0.0753881	-0.0885997	0.281706	-0.314534	1.5708	0.434733	0.327867	0	0	0.592643	-0.404438	1.57201	0.534454	0.0897927	0	0
3.13718	-0.198893	-0.0421609	-3.1976	-0.223728	0.982178	0.0367137	0.26088	-0.160964	-0.14793	1.01086	0.0234996	0	0	-0.102077	0.110872	-0.0974472	0.24208	0.151856	0	0	-0.468481	-0.0723343	-0.0927936	0.275991	-0.314462	1.5708	0.432111	0.319703	0	0	0.60747	-0.409602	1.57231	0.542399	0.0995631	0	0
3.14717	-0.198088	-0.0410004	-3.19783	-0.222494	0.982127	0.0369286	0.268562	-0.157366	-0.152501	0.973131	0.0277866	0	0	-0.113438	0.111008	-0.0955104	0.234383	0.156451	0	0	-0.468965	-0.0697022	-0.0962982	0.27041	-0.314247	1.5708	0.429361	0.311259	0	0	0.621796	-0.414338	1.57259	0.550273	0.108812	0	0
3.15716	-0.197136	-0.0400364	-3.19841	-0.221288	0.981961	0.0370718	0.275406	-0.15374	-0.156989	0.933011	0.0300802	0	0	-0.124366	0.111297	-0.0938084	0.22726	0.161377	0	0	-0.469261	-0.0674228	-0.0991541	0.264979	-0.313889	1.5708	0.426479	0.302638	0	0	0.635571	-0.418596	1.57281	0.558012	0.117467	0	0
3.16715	-0.196005	-0.0392338	-3.19927	-0.220114	0.981686	0.0371459	0.28143	-0.150013	-0.161359	0.890641	0.0303331	0	0	-0.134802	0.111701	-0.0922941	0.220773	0.166631	0	0	-0.469341	-0.0654271	-0.101399	0.259709	-0.31339	1.5708	0.423467	0.293953	0	0	0.64875	-0.422335	1.5729	0.565549	0.125509	0	0
